<svg xmlns="http://www.w3.org/2000/svg" viewBox="0 0 24 24" fill="#4169E1">
  <!-- Book pages -->
  <path d="M6 2h12a2 2 0 0 1 2 2v16a2 2 0 0 1-2 2H6a2 2 0 0 1-2-2V4a2 2 0 0 1 2-2z" fill="#4169E1"/>
  <!-- Spine/binding -->
  <path d="M12 2v20" stroke="#1E3A8A" stroke-width="2"/>
  <!-- Page lines left -->
  <line x1="7" y1="7" x2="11" y2="7" stroke="white" stroke-width="0.5"/>
  <line x1="7" y1="10" x2="11" y2="10" stroke="white" stroke-width="0.5"/>
  <line x1="7" y1="13" x2="11" y2="13" stroke="white" stroke-width="0.5"/>
  <!-- Page lines right -->
  <line x1="13" y1="7" x2="17" y2="7" stroke="white" stroke-width="0.5"/>
  <line x1="13" y1="10" x2="17" y2="10" stroke="white" stroke-width="0.5"/>
  <line x1="13" y1="13" x2="17" y2="13" stroke="white" stroke-width="0.5"/>
</svg>
