<!-- <a href="https://iconscout.com/icons/wood-log" class="text-underline font-size-sm" target="_blank">Wood Log</a> by <a href="https://iconscout.com/contributors/grapixel" class="text-underline font-size-sm" target="_blank">Grapixel</a> -->
<svg xmlns="http://www.w3.org/2000/svg" viewBox="0 0 512 512" id="wood-log">
  <path fill="#c36329" d="M430.032,160.022V419.081H81.982c-42.538,0-77.077-57.969-77.077-129.53S39.444,160.022,81.982,160.022H205.549C223.762,133.2,226.6,109.516,226.6,109.516h84.377a181.755,181.755,0,0,1-7.007,50.506Z"></path>
  <path fill="#f3bd69" d="M507.1,289.545c0,71.534-34.487,129.525-77.028,129.525s-77.029-57.991-77.029-129.525,34.487-129.526,77.029-129.526S507.1,218.01,507.1,289.545ZM268.789,92.919c-23.3,0-42.188,7.431-42.188,16.6s18.888,16.6,42.188,16.6,42.189-7.43,42.189-16.6S292.089,92.919,268.789,92.919Z"></path>
  <path fill="#3b294d" d="M488.746,195.451c-15.46-26.01-36.3-40.34-58.68-40.34-.35,0-.7,0-1.05.01H310.446a183.9,183.9,0,0,0,5.44-45.47v-.14a.86.86,0,0,0-.01-.16c-.17-14.01-23.77-21.34-47.09-21.34-23.09,0-46.48,7.19-47.06,20.95a.34.34,0,0,0-.01.1.277.277,0,0,0-.01.09v.01c-.33,2.2-3.11,19.27-14.92,39.68-1.17,2.02-2.46,4.12-3.88,6.28H81.986c-22.38,0-43.23,14.32-58.71,40.32C8.266,220.661,0,254.081,0,289.551s8.27,68.89,23.28,94.11c15.48,26,36.33,40.32,58.71,40.32h348.05a1.21,1.21,0,0,0,.19-.01c22.32-.07,43.1-14.38,58.52-40.33,15-25.21,23.25-58.63,23.25-94.1S503.746,220.661,488.746,195.451Zm-219.96-97.63c15.91,0,27.05,3.36,32.79,6.79,2.97,1.76,4.5,3.55,4.5,4.9s-1.53,3.14-4.5,4.91c-5.74,3.43-16.88,6.79-32.79,6.79s-27.04-3.36-32.78-6.79c-2.97-1.77-4.5-3.55-4.5-4.91s1.53-3.14,4.5-4.9C241.746,101.181,252.886,97.821,268.786,97.821Zm-186.8,316.35c-18.78,0-36.64-12.61-50.28-35.53-14.12-23.72-21.9-55.36-21.9-89.09s7.78-65.37,21.9-89.09c13.64-22.92,31.5-35.54,50.28-35.54h113.87c-13.37,17-34.44,35.7-67.09,48.61a4.9,4.9,0,0,0,1.8,9.46,5.042,5.042,0,0,0,1.81-.34c38.44-15.2,61.83-38.08,75.73-57.73,2.39-3.38,4.51-6.67,6.37-9.8q.54-.915,1.05-1.8a139.769,139.769,0,0,0,13.46-31.76c8.81,6.24,24.37,9.45,39.8,9.45,13.78,0,27.66-2.56,36.74-7.54a186.317,186.317,0,0,1-5.36,31.65c-.85,3.22-1.81,6.5-2.92,9.8-5.81,17.48-15.44,35.77-31.36,49.45a4.9,4.9,0,0,0,6.39,7.44c18.61-15.98,29.3-37.19,35.44-56.89h91.32c-10.29,6.83-19.68,17.13-27.65,30.53-14.99,25.21-23.25,58.63-23.25,94.09s8.26,68.89,23.25,94.1c7.97,13.4,17.36,23.69,27.65,30.53Zm398.33-35.54c-12.45,20.92-28.4,33.26-45.38,35.24a41.605,41.605,0,0,1-4.87.29,40.812,40.812,0,0,1-4.94-.3c-16.95-2.01-32.88-14.34-45.31-35.23-14.11-23.72-21.87-55.36-21.87-89.09s7.76-65.36,21.87-89.08c12.43-20.9,28.36-33.23,45.31-35.24a40.812,40.812,0,0,1,4.94-.3,41.605,41.605,0,0,1,4.87.29c16.98,1.98,32.93,14.32,45.38,35.25,14.11,23.72,21.88,55.35,21.88,89.08S494.426,354.911,480.316,378.631Zm6.35-89.09c0,24.09-5.63,46.81-15.83,63.97-9.57,16.08-22.17,25.69-35.9,27.53a35.893,35.893,0,0,1-4.87.33,4.905,4.905,0,0,1,0-9.81,25.668,25.668,0,0,0,4.87-.46c10.22-1.9,19.83-9.76,27.47-22.6,9.32-15.67,14.45-36.61,14.45-58.96a131.775,131.775,0,0,0-4.88-36.22,4.9,4.9,0,1,1,9.43-2.7A141.707,141.707,0,0,1,486.666,289.541Zm-56.6-82.01a26.413,26.413,0,0,0-4.94.47c-10.19,1.92-19.77,9.78-27.39,22.59-9.32,15.67-14.45,36.61-14.45,58.95a4.905,4.905,0,1,1-9.81,0c0-24.08,5.62-46.8,15.83-63.96,9.54-16.06,22.12-25.66,35.82-27.52a35.345,35.345,0,0,1,4.94-.34,4.9,4.9,0,0,1,4.87,4.34,4.081,4.081,0,0,1,0,1.14A4.9,4.9,0,0,1,430.066,207.531Zm-5.688,136.255a4.9,4.9,0,0,1-6.653,1.963c-12.388-6.743-21.42-23.024-24.163-43.549a4.9,4.9,0,0,1,9.722-1.3c2.3,17.175,9.625,31.059,19.131,36.233A4.9,4.9,0,0,1,424.378,343.786ZM198.772,378.113a4.9,4.9,0,0,1-4.9,4.9H54.655a4.9,4.9,0,0,1,0-9.808H193.868A4.9,4.9,0,0,1,198.772,378.113Zm144.982-35.425a4.9,4.9,0,0,1-4.9,4.9H248.013a4.9,4.9,0,1,1,0-9.809H338.85A4.9,4.9,0,0,1,343.754,342.688Zm-139.375,0a4.9,4.9,0,0,1-4.9,4.9h-38.12a4.9,4.9,0,0,1,0-9.809h38.12A4.9,4.9,0,0,1,204.379,342.688Zm-17.733-35.426a4.9,4.9,0,0,1,4.9-4.9h87.839a4.9,4.9,0,0,1,0,9.809H191.55A4.9,4.9,0,0,1,186.646,307.262Zm-112.934,4.9H29.792a4.9,4.9,0,0,1,0-9.809h43.92a4.9,4.9,0,0,1,0,9.809Zm-4.8-45.234H166.55a4.9,4.9,0,0,1,0,9.808H68.913a4.9,4.9,0,0,1,0-9.808Zm166.3,0a4.9,4.9,0,1,1,0,9.808H203.923a4.9,4.9,0,0,1,0-9.808Zm-40.645-30.52a4.9,4.9,0,0,1,4.9-4.9H338.688a4.9,4.9,0,0,1,0,9.808H199.475A4.9,4.9,0,0,1,194.571,236.413ZM48.784,200.988a4.9,4.9,0,0,1,4.905-4.905h43.94a4.9,4.9,0,1,1,0,9.809H53.689A4.9,4.9,0,0,1,48.784,200.988Zm254.755,0a4.9,4.9,0,0,1,4.9-4.905h30.245a4.9,4.9,0,0,1,0,9.809H308.443A4.9,4.9,0,0,1,303.539,200.988Z"></path>
</svg>